<?xml version="1.0" standalone="no"?>
<!DOCTYPE svg PUBLIC "-//W3C//DTD SVG 20010904//EN"
 "http://www.w3.org/TR/2001/REC-SVG-20010904/DTD/svg10.dtd">
<svg version="1.0" xmlns="http://www.w3.org/2000/svg"
 width="516.000000pt" height="516.000000pt" viewBox="0 0 516.000000 516.000000"
 preserveAspectRatio="xMidYMid meet">
<metadata>
Created by potrace 1.11, written by Peter Selinger 2001-2013
</metadata>
<g transform="translate(0.000000,516.000000) scale(0.100000,-0.100000)"
fill="#000000" stroke="none">
<path d="M3358 4524 c-2 -1 -50 -5 -108 -8 -58 -4 -116 -8 -130 -10 -14 -3
-56 -7 -93 -11 -37 -3 -76 -8 -85 -10 -9 -1 -39 -6 -66 -9 -75 -10 -279 -46
-295 -52 -8 -2 -30 -7 -49 -10 -19 -3 -87 -19 -151 -36 -64 -16 -125 -32 -136
-34 -40 -8 -293 -93 -385 -129 -548 -216 -883 -508 -971 -845 -20 -80 -28
-237 -15 -299 25 -114 77 -203 175 -300 205 -201 488 -319 1216 -506 99 -25
214 -55 255 -66 41 -11 86 -22 100 -25 14 -3 80 -21 148 -40 254 -73 448 -159
576 -256 85 -65 120 -107 151 -184 20 -49 24 -73 21 -141 -2 -69 -8 -92 -35
-146 -100 -197 -374 -344 -766 -411 -229 -39 -404 -40 -639 -2 -70 11 -215 65
-269 99 -68 44 -132 116 -151 173 -23 67 -16 176 15 244 43 91 158 194 294
263 46 23 244 88 306 101 37 8 68 36 73 66 5 37 -19 77 -52 85 -94 20 -351
-73 -528 -190 -222 -148 -322 -351 -278 -564 19 -88 47 -142 107 -204 171
-176 452 -260 837 -252 152 3 191 6 275 20 17 2 48 7 70 11 146 22 385 101
505 167 136 74 268 190 328 289 95 158 105 362 24 512 -35 65 -138 169 -227
227 -203 135 -407 208 -1060 379 -82 21 -193 51 -245 65 -52 14 -102 28 -110
29 -122 29 -374 113 -493 167 -193 86 -359 214 -412 318 -88 174 -53 397 91
578 191 240 548 447 999 579 6 2 57 17 115 34 58 17 116 34 130 36 14 3 50 11
80 19 153 38 416 84 600 105 52 5 111 12 130 15 68 10 466 13 535 5 139 -17
153 -20 231 -44 88 -28 169 -75 207 -121 53 -65 49 -173 -10 -275 -75 -128
-271 -256 -482 -315 -32 -9 -70 -26 -85 -38 -36 -29 -42 -78 -13 -105 34 -30
62 -32 135 -11 37 11 76 22 87 24 41 10 222 107 279 150 195 146 287 298 288
474 1 217 -203 358 -592 407 -51 6 -447 14 -452 8z"/>
<path d="M2609 1588 c-7 -13 -13 -73 -14 -143 -1 -66 -3 -123 -4 -126 -2 -11
-54 -29 -86 -30 -16 -1 -47 2 -67 6 -34 6 -38 5 -38 -13 0 -54 191 -45 227 10
4 7 9 65 10 128 1 63 5 132 9 153 5 30 4 37 -9 37 -9 0 -22 -10 -28 -22z"/>
<path d="M2781 1591 c-44 -21 -60 -45 -45 -68 15 -24 39 -23 39 2 0 11 8 21
18 23 9 2 17 0 17 -5 0 -4 6 -39 14 -78 8 -38 17 -92 20 -119 3 -27 8 -51 11
-54 2 -3 0 -13 -5 -23 -8 -14 -6 -21 9 -29 16 -8 22 -7 29 7 5 10 8 25 7 33
-1 8 -5 35 -8 60 -3 25 -13 81 -21 125 -21 105 -21 105 12 105 48 0 53 -16 25
-82 -25 -56 -25 -60 -9 -76 14 -15 37 -17 162 -15 80 1 149 5 154 8 6 4 10 13
10 21 0 13 -20 15 -141 12 -77 -2 -142 -1 -145 3 -2 4 4 27 14 51 22 51 20 77
-7 99 -26 22 -116 22 -160 0z"/>
<path d="M2083 1581 c-67 -31 -81 -78 -37 -130 15 -18 66 -50 122 -77 68 -32
92 -48 82 -54 -27 -14 -119 -32 -137 -26 -24 7 -42 -5 -48 -32 -3 -17 1 -22
18 -22 35 0 187 39 206 53 42 29 -1 79 -102 119 -73 28 -131 76 -122 100 14
36 81 54 127 34 20 -9 38 0 38 19 0 14 -50 35 -84 35 -12 0 -40 -9 -63 -19z"/>
<path d="M2370 1532 c0 -11 26 -33 68 -60 80 -49 126 -62 135 -38 4 11 -13 25
-69 52 -41 21 -80 44 -86 51 -16 19 -48 16 -48 -5z"/>
</g>
</svg>
